<svg xmlns="http://www.w3.org/2000/svg" width="300" height="62.637" viewBox="0 0 300 62.637"><path d="m23.626 15.385 1.648 0.549 0.927 -0.755C27.976 13.931 29.748 13.732 31.868 13.736c2.219 0.512 3.76 1.28 5.495 2.747l0.859 -1.064C39.985 13.926 41.112 13.814 43.407 13.736c4.108 0.821 4.108 0.821 5.495 2.747 0.652 1.956 0.742 3.831 0.859 5.873l0.071 1.168Q49.918 24.949 50 26.374l0.264 -1.947q0.193 -1.276 0.388 -2.552l0.169 -1.28C51.28 17.707 51.93 16.084 54.396 14.286c3.485 -0.945 7.118 -0.864 10.44 0.549 1.562 1.247 1.931 2.271 2.29 4.213l0.285 1.486 0.275 1.547 0.296 1.566Q68.34 25.557 68.681 27.473l0.062 -1.927q0.054 -1.269 0.11 -2.537l0.037 -1.266c0.125 -2.636 0.375 -4.718 1.988 -6.907 5.046 -2.144 12.956 -1.868 18.132 0a63.187 63.187 0 0 1 2.747 2.198c1.659 0 2.404 -0.692 3.777 -1.648 3.304 -2.114 7.914 -2.216 11.723 -1.382l1.12 0.318c2.141 0.536 3.242 0.461 5.357 -0.034 2.93 -0.586 4.884 -0.531 7.692 0.549 0.996 0.824 0.996 0.824 1.648 1.648l1.099 1.099 0.755 -1.339C125.824 14.835 125.824 14.835 126.923 14.286c6.577 -0.584 6.577 -0.584 8.791 0.575 0.964 0.976 1.587 2.049 2.198 3.271l0.755 -1.305C139.56 15.385 139.56 15.385 140.659 14.286c3.22 -0.655 5.069 -0.374 8.242 0.549 1.687 -0.143 3.22 -0.368 4.844 -0.839 5.225 -1.131 9.81 -0.258 14.387 2.316L169.231 17.033l1.099 -1.03c3.874 -2.745 8.599 -2.65 13.187 -2.266 2.34 0.573 4.479 1.602 6.593 2.747v-1.099c2.495 -1.46 4.253 -1.964 7.143 -1.648 1.511 0.824 1.511 0.824 2.747 1.648 1.75 0.152 1.75 0.152 3.297 -1.099 2.89 -0.663 5.395 -0.427 8.325 -0.101 1.566 0.101 2.965 -0.007 4.518 -0.208 2.991 -0.359 4.424 0.205 6.834 2.026L224.176 17.033l0.405 -1.052C225.275 14.835 225.275 14.835 226.329 14.342c3.347 -0.703 5.885 -0.651 8.905 1.214L236.264 15.934c1.375 -0.715 1.375 -0.715 2.747 -1.648 4.32 -1.093 8.526 -0.928 12.652 0.738 1.242 0.476 1.242 0.476 3.282 0.36l1.648 -1.099c2.636 -0.783 5.379 -0.63 8.104 -0.618l1.425 -0.007c2.708 0.004 5.327 0.178 8.013 0.512 2.224 0.22 4.452 0.032 6.678 -0.082 1.997 0.243 2.571 0.843 3.801 2.393 0.688 1.376 0.615 2.306 0.612 3.846v1.734l-0.009 1.876 -0.003 1.918c-0.003 2.026 -0.01 4.053 -0.016 6.08q-0.005 2.057 -0.008 4.114Q285.182 41.103 285.165 46.154l1.144 -0.024 1.5 -0.019 1.488 -0.024c1.787 0.088 2.768 0.541 4.11 1.715 1.41 1.88 1.299 3.762 1.099 6.044 -0.874 1.787 -1.754 3.502 -3.723 4.185 -1.453 0.251 -2.829 0.285 -4.303 0.291l-1.873 0.01 -2.016 0.002 -2.077 0.005q-2.175 0.004 -4.349 0.004c-1.854 0 -3.707 0.008 -5.561 0.017 -1.773 0.008 -3.547 0.007 -5.32 0.008l-2.012 0.012 -1.877 -0.005 -1.648 0.003c-1.61 -0.145 -2.786 -0.57 -4.252 -1.235 -1.808 -0.626 -2.647 -0.505 -4.396 0.241 -4.889 1.745 -9.57 1.142 -14.286 -0.79l-1.648 -0.549 -0.893 0.755c-1.963 1.343 -3.898 1.514 -6.25 1.442 -2.278 -0.559 -3.614 -1.3 -4.945 -3.297l-1.374 1.34c-1.975 1.631 -3.765 2.144 -6.319 1.957 -1.409 -0.414 -2.53 -0.964 -3.846 -1.648l-1.099 -0.549q-1.376 0.819 -2.747 1.648c-4.463 1.176 -9.995 1.238 -14.286 -0.549 -1.157 -0.679 -2.211 -1.403 -3.297 -2.198l-1.03 1.34C187.912 57.692 187.912 57.692 186.813 58.242c-1.851 0.147 -3.707 0.127 -5.563 0.137l-1.541 0.035c-3.337 0.019 -5.797 -0.403 -8.83 -1.82l-1.099 -1.099c-1.438 0.148 -2.301 0.613 -3.537 1.374 -3.643 2.132 -8.748 1.841 -12.786 1.101 -2.667 -0.783 -4.199 -1.659 -5.655 -4.123 -0.607 -1.269 -1.134 -2.535 -1.648 -3.846l-0.163 1.125c-0.669 3.993 -0.669 3.993 -1.931 5.778 -2.419 1.59 -4.967 1.488 -7.796 1.339 -2.763 -0.596 -3.905 -1.523 -5.495 -3.846l-1.202 1.614c-0.972 1.157 -1.408 1.632 -2.851 2.163L125.275 58.242l-1.854 0.137c-2.33 -0.16 -3.813 -0.618 -5.838 -1.786 -1.124 -1.761 -1.804 -3.445 -2.198 -5.495l-0.618 1.477c-1.643 2.903 -3.309 4.211 -6.387 5.288 -4.159 0.834 -8.216 0.638 -12.225 -0.721q-1.377 -1.095 -2.747 -2.198c-1.447 0.044 -2.029 0.405 -3.125 1.34 -3.998 2.701 -9.519 2.127 -14.154 2.101 -1.234 -0.006 -2.466 0 -3.7 0.007q-1.189 0 -2.379 -0.004l-2.154 -0.004c-2.329 -0.169 -4.333 -0.574 -6.247 -1.956 -0.869 -1.231 -1.062 -2.303 -1.311 -3.784 -0.088 -0.496 -0.175 -0.991 -0.264 -1.501L59.89 50c-1.221 0.451 -1.221 0.451 -1.509 1.747q-0.379 1.476 -0.755 2.953c-0.519 1.443 -0.901 2.089 -2.131 2.992 -2.823 0.753 -5.4 0.474 -8.242 0q-1.223 0.13 -2.438 0.309c-2.365 0.307 -4.11 0.038 -6.353 -0.859 -1.064 -0.893 -1.064 -0.893 -1.648 -1.648l-0.79 1.065C34.027 58.166 32.201 58.37 29.67 58.242c-1.386 -0.42 -2.541 -0.996 -3.846 -1.648 -1.654 0 -2.61 0.288 -4.155 0.824 -4.742 1.445 -9.44 1.303 -13.977 -0.824 -3.038 -2.659 -3.575 -5.581 -3.966 -9.42C3.608 44.595 4.079 42.809 5.495 40.659l1.648 -0.549 -0.582 -0.966 -0.758 -1.301 -0.753 -1.275c-2.305 -4.943 -1.743 -12.119 -0.524 -17.325 0.818 -2.171 2.326 -3.299 4.196 -4.546C13.809 12.903 18.733 13.488 23.626 15.385m242.857 10.44v3.846q1.355 0.159 2.713 0.309l1.526 0.174L271.978 30.22c0.778 -0.651 0.778 -0.651 0.584 -2.507L272.527 25.824zM159.341 32.418v7.143l7.692 -1.099V32.967l-1.992 0.035c-2.033 0.035 -3.612 -0.236 -5.701 -0.584m107.692 8.791c-0.663 0.54 -0.663 0.54 -0.603 1.565l0.02 1.217L266.484 46.154q1.357 0.021 2.713 0.035l1.526 0.019c1.236 0.088 1.236 0.088 1.805 -0.603a32.418 32.418 0 0 0 0.035 -2.232L272.527 41.209c-1.823 -0.912 -3.513 -0.315 -5.495 0" fill="#030304"/><path d="M198.798 14.526 200 15.385c1.449 0.725 2.54 0.583 4.155 0.549 0.996 -0.021 1.992 -0.026 2.987 0 0.945 0.945 0.629 2.196 0.638 3.485l0.016 1.901 0.007 2.072 0.009 2.118q0.008 2.225 0.011 4.449c0.003 1.895 0.016 3.79 0.032 5.685 0.013 1.812 0.014 3.623 0.016 5.434l0.021 2.055c-0.01 3.853 -0.241 6.386 -2.615 9.529 -1.865 1.342 -4.371 0.94 -6.583 0.945l-1.575 0.06c-3.69 0.024 -3.69 0.024 -5.226 -1.033 -1.453 -1.624 -2.114 -3.122 -2.161 -5.278 -0.019 -1.24 -0.019 -1.24 -0.172 -2.301l-1.099 -0.549 -0.464 0.947c-0.849 1.673 -1.783 3.294 -2.713 4.923 -0.69 1.312 -1.228 2.642 -1.769 4.02 -1.97 -0.137 -3.938 -0.29 -5.907 -0.446l-1.691 -0.117 -1.631 -0.135 -1.5 -0.113C171.154 53.238 170.404 52.841 169.231 51.648c-1.497 -3.019 -1.296 -6.316 -1.322 -9.613l-0.019 -1.843q-0.015 -1.925 -0.022 -3.851a475.824 475.824 0 0 0 -0.079 -5.874q-0.011 -1.875 -0.017 -3.749l-0.041 -1.766c0.02 -3.369 0.43 -5.321 2.775 -7.799 2.068 -1.502 4.459 -1.325 6.933 -1.357l2.007 -0.043c2.659 0.256 4.024 1.215 5.857 3.099 1.064 1.635 1.332 2.848 1.511 4.774 1.705 -0.364 1.705 -0.364 2.266 -1.648 0.437 -1.498 0.543 -2.649 0.618 -4.19 0.125 -1.29 0.125 -1.29 0.412 -2.404 2.639 -2.074 5.692 -2.39 8.688 -0.858" fill="#0d3965"/><path d="M134.615 14.286c1.718 0.904 2.433 2.118 3.297 3.846l0.549 -1.648h6.593c-1.511 11.463 -1.511 11.463 -2.473 16.999 -0.775 4.461 -1.365 8.94 -1.922 13.433l-0.195 1.552c-0.055 0.455 -0.111 0.91 -0.169 1.379C140.11 51.099 140.11 51.099 139.56 53.297h-7.143c-1.34 -4.201 -1.949 -8.224 -2.36 -12.591A115.934 115.934 0 0 0 128.571 30.22c-1.074 5.192 -1.893 10.339 -2.343 15.626 -0.237 2.612 -0.703 4.951 -1.503 7.451h-7.143a667.582 667.582 0 0 1 -0.79 -3.984l-0.225 -1.103c-0.443 -2.293 -0.714 -4.545 -0.876 -6.876 -0.265 -3.484 -0.938 -6.813 -1.681 -10.221 -1.034 -4.921 -1.749 -9.596 -1.923 -14.629h6.044l0.184 1.72q0.345 3.2 0.695 6.399 0.15 1.376 0.297 2.754c0.538 5.02 1.095 10.002 2.121 14.951 0.969 -4.988 1.763 -9.945 2.232 -15.007 0.29 -3.088 0.581 -6.168 1.03 -9.238l0.221 -1.515c1.14 -3.655 6.716 -2.615 9.703 -2.262" fill="#b4b8bb"/><path d="M70.879 16.484h14.286v1.099l1.03 0.378c1.544 0.954 1.713 1.76 2.266 3.468 0.143 1.33 0.143 1.33 0.151 2.731l0.016 1.601 -0.002 1.71 0.007 1.775q0.004 1.856 0.001 3.712c-0.002 1.89 0.011 3.779 0.025 5.668q0.002 1.805 0.001 3.611l0.015 1.707c-0.019 2.963 -0.118 5.187 -1.863 7.704 -2.198 1.648 -2.198 1.648 -15.934 1.648z" fill="#d3d6d8"/><path d="m101.065 16.209 1.488 -0.047c2.517 -0.008 3.674 0.041 5.725 1.61 1.452 1.995 1.682 3.422 1.701 5.824l0.016 1.673 0.007 1.805 0.009 1.858q0.008 1.947 0.011 3.893c0.005 1.985 0.023 3.97 0.04 5.954q0.005 1.891 0.009 3.782l0.021 1.799c-0.011 3.547 -0.311 5.57 -2.727 8.269 -2.104 1.064 -4.181 0.927 -6.505 0.908l-1.409 0.033c-2.249 -0.002 -3.538 -0.094 -5.513 -1.25 -1.699 -1.923 -1.698 -3.696 -1.709 -6.198l-0.011 -1.673 -0.002 -1.797 -0.005 -1.855a1752.747 1752.747 0 0 1 -0.004 -3.884c-0.001 -1.98 -0.011 -3.959 -0.022 -5.94q-0.003 -1.887 -0.003 -3.775l-0.012 -1.793 0.005 -1.678 -0.003 -1.47c0.197 -2 0.763 -3.568 2.06 -5.105 2.21 -1.079 4.407 -0.952 6.832 -0.945" fill="#cccfd1"/><path d="M211.538 15.934h6.044l0.68 2.048q1.036 3.107 2.091 6.207l1.178 3.49 0.613 1.797 0.578 1.719 0.526 1.553C223.626 34.066 223.626 34.066 223.626 35.714h1.099l-0.059 -1.638q-0.107 -3.008 -0.205 -6.018 -0.044 -1.302 -0.091 -2.604 -0.067 -1.873 -0.126 -3.744l-0.046 -1.176c-0.052 -1.709 -0.018 -2.962 0.528 -4.6h5.495v37.363h-6.044a7478.571 7478.571 0 0 1 -6.593 -22.527l-0.549 22.527h-5.495z" fill="#0f3d6c"/><path d="M53.297 16.484h7.692a1353.297 1353.297 0 0 0 3.606 18.544c0.812 4.035 1.61 8.071 2.335 12.123l0.206 1.134c0.301 1.718 0.446 3.258 0.446 5.013h-5.495c-0.96 -2.881 -1.205 -5.205 -1.099 -8.242l-7.692 0.549 -1.099 7.692H46.703c0.318 -5.878 1.405 -11.545 2.496 -17.32 0.305 -1.652 0.575 -3.308 0.835 -4.967C50.834 26.109 52.071 21.293 53.297 16.484" fill="#c9cccf"/><path d="M37.912 15.934h5.495v37.363h-4.945l-0.549 -15.934 -6.593 -0.549v16.484H25.824V16.484h5.495v15.934h6.593z" fill="#d0d3d5"/><path d="M247.44 16.368c1.681 0.931 2.589 1.807 3.659 3.412 0.126 1.824 0.126 1.824 0.103 3.915l-0.011 2.099C251.099 27.473 251.099 27.473 250.549 28.022c-0.823 0.054 -1.648 0.071 -2.473 0.069l-1.357 0.004C245.604 28.022 245.604 28.022 245.055 27.473a67.582 67.582 0 0 1 -0.309 -3.056l-0.14 -1.685L244.505 21.429q-1.923 -0.034 -3.846 0c-0.793 0.667 -0.793 0.667 -0.603 2.646q0.005 1.304 0.02 2.608l0.007 1.343q0.011 1.647 0.027 3.293l1.586 0.163 2.088 0.249 2.067 0.232c2.129 0.496 3.145 1.143 4.698 2.653 1.154 2.308 0.676 5.329 0.687 7.864l0.035 1.9 0.008 1.836 0.015 1.679C251.065 49.72 250.538 50.725 249.451 52.198c-2.339 1.559 -4.358 1.301 -7.108 1.305l-1.51 0.041c-3.651 0.016 -3.651 0.016 -5.429 -1.255 -1.491 -2.251 -1.396 -4.151 -1.372 -6.787l0.015 -2.118L234.066 41.758h6.044v6.593h4.945V37.363l-3.674 -0.103c-4.371 -0.296 -4.371 -0.296 -5.838 -1.82L234.615 34.066l-0.549 -0.549c-0.201 -2.33 -0.204 -4.668 -0.24 -7.005l-0.077 -1.987c-0.06 -4.722 -0.06 -4.722 1.01 -6.341 3.314 -2.85 8.63 -3.181 12.681 -1.815" fill="#0c3159"/><path d="m13.393 16.209 1.416 -0.047c2.462 -0.008 3.538 0.064 5.542 1.61 1.638 2.219 1.69 3.82 1.661 6.507l-0.015 1.809L21.978 27.473H16.484V21.429h-4.945v10.44l3.4 0.103c4.066 0.301 4.066 0.301 5.529 1.786 1.978 2.897 1.653 5.526 1.683 8.963l0.048 1.808c0.027 3.45 -0.04 5.626 -2.418 8.22 -1.927 0.964 -4.091 0.744 -6.215 0.79l-1.424 0.076c-3.381 0.06 -3.381 0.06 -4.825 -0.99C4.385 49.275 4.895 45.971 4.945 41.758h6.044v6.593h4.945l-0.549 -10.989 -3.125 -0.137c-2.096 -0.18 -3.319 -0.331 -5.186 -1.339 -2.238 -2.76 -2.316 -5.805 -2.301 -9.203l-0.027 -1.208c-0.002 -3.158 0.551 -5.727 2.582 -8.26 1.735 -1.39 3.929 -1.013 6.064 -1.007" fill="#e2e4e4"/><path d="m156.181 15.763 2.172 -0.063c2.402 0.269 3.53 0.91 5.383 2.432 1.389 2.084 1.222 3.741 1.168 6.147l-0.015 1.248c-0.013 1.015 -0.033 2.03 -0.054 3.045h-6.044V20.879l-4.945 0.549v26.374l4.945 0.549 -0.14 -1.264 -0.169 -1.655 -0.174 -1.642C158.242 42.308 158.242 42.308 158.791 40.659h6.044c0.059 1.5 0.103 2.998 0.137 4.499l0.056 1.28c0.038 2.212 -0.019 3.286 -1.232 5.203 -2.245 2.142 -4.414 1.793 -7.374 1.827l-1.424 0.048c-2.262 0.023 -3.557 -0.016 -5.536 -1.192 -1.802 -1.99 -2.346 -3.474 -2.351 -6.151l-0.01 -1.639 0.007 -1.76 -0.003 -1.819q-0.001 -1.903 0.005 -3.806c0.005 -1.941 0 -3.88 -0.007 -5.82q0 -1.85 0.004 -3.699l-0.007 -1.757 0.011 -1.645c0 -0.475 0.001 -0.951 0.002 -1.44 0.242 -2.361 0.846 -3.753 2.612 -5.342 2.267 -1.587 3.676 -1.631 6.456 -1.682" fill="#0b345e"/><path d="M134.615 14.286c1.72 0.901 2.433 2.119 3.297 3.846l0.549 -1.648h6.593c-1.511 11.463 -1.511 11.463 -2.473 16.999 -0.775 4.461 -1.365 8.94 -1.922 13.433l-0.195 1.552c-0.055 0.455 -0.111 0.91 -0.169 1.379C140.11 51.099 140.11 51.099 139.56 53.297h-7.143c-2.889 -9.269 -2.889 -9.269 -1.088 -13.36L131.868 39.011l2.198 1.099q0.021 -1.185 0.035 -2.369l0.019 -1.333c-0.001 -1.335 -0.001 -1.335 -0.603 -2.891 -0.156 -1.06 -0.291 -2.124 -0.414 -3.19l-0.22 -1.899 -0.225 -1.985 -0.231 -1.973C132.12 21.776 131.868 19.199 131.868 16.484h-6.593l0.549 -1.648c2.56 -1.28 6.013 -0.845 8.791 -0.549m-2.747 26.374 0.549 1.099 0.549 -1.099z" fill="#d5d9db"/><path d="M254.945 15.934h15.385v4.945c-0.549 0.549 -0.549 0.549 -2.646 0.603a387.363 387.363 0 0 1 -2.608 -0.019L260.44 21.429v10.44h8.242v4.945h-8.242v11.538h10.44l-0.549 4.945h-15.385z" fill="#0f3c6b"/><path d="M195.604 16.484c0.048 1.957 0.077 3.914 0.103 5.873l0.042 1.677c0.029 2.958 0.009 4.831 -1.793 7.286 -0.384 1.42 -0.384 1.42 -0.584 2.851 -0.398 2.526 -0.398 2.526 -1.614 3.743a84.615 84.615 0 0 0 -1.099 3.846l-0.549 -2.198h-1.099l0.101 -0.989A917.582 917.582 0 0 0 190.11 28.022c-2.398 2.238 -3.295 3.906 -3.709 7.143 -0.408 2.209 -0.56 2.631 -2.301 4.224C182.418 40.11 182.418 40.11 180.769 39.56c-0.628 -1.884 -0.665 -3.429 -0.723 -5.415l-0.035 -1.102q-0.053 -1.738 -0.101 -3.477l-0.072 -2.359Q179.751 24.318 179.67 21.429l-3.297 -0.549 2.198 -1.648c-1.368 -1.368 -1.854 -1.262 -3.743 -1.27 -2.304 0.036 -3.751 0.342 -5.598 1.82 0.633 -1.356 1.125 -2.224 2.198 -3.297 1.956 -0.704 3.949 -0.66 6.01 -0.687l2.007 -0.043c2.659 0.256 4.024 1.215 5.857 3.099 1.064 1.635 1.332 2.848 1.511 4.774 1.714 -0.363 1.714 -0.363 2.266 -1.682 0.599 -2.011 0.818 -3.923 1.03 -6.01 2.146 -0.69 3.499 -0.448 5.495 0.549" fill="#134c80"/><path d="M273.626 16.484h6.044v31.868h8.791v4.945h-14.835z" fill="#0e3863"/><path d="M174.176 21.429h6.044l0.042 1.487q0.079 2.732 0.163 5.465 0.036 1.182 0.069 2.364 0.048 1.7 0.103 3.401l0.06 2.066c0.042 1.72 0.042 1.72 0.663 3.349l1.271 -0.515A60.989 60.989 0 0 1 185.714 37.912l0.024 -1.047c0.195 -3.491 0.892 -6.187 3.273 -8.843h1.099c0.108 3.36 0.141 6.171 -1.099 9.341q-0.25 1.252 -0.481 2.507c-0.475 2.237 -1.28 3.463 -2.816 5.185a72.527 72.527 0 0 0 -1.648 3.297c-2.61 -0.481 -2.61 -0.481 -3.846 -1.099v1.099q-1.357 0.021 -2.713 0.035l-1.526 0.019C174.725 48.352 174.725 48.352 174.176 47.802a38.462 38.462 0 0 1 -0.063 -2.484v-1.6l0.009 -1.74 0.003 -1.771c0.003 -1.875 0.01 -3.751 0.016 -5.626l0.008 -3.804q0.01 -4.675 0.027 -9.348" fill="#000102"/><path d="M224.725 15.934h5.495v37.363h-6.044c-3.703 -11.777 -3.703 -11.777 -3.297 -14.835 0.824 -0.966 0.824 -0.966 1.648 -1.648l1.099 1.099v-2.198h1.099l-0.059 -1.638q-0.107 -3.008 -0.205 -6.018 -0.044 -1.302 -0.091 -2.604 -0.067 -1.873 -0.126 -3.744l-0.046 -1.176c-0.052 -1.709 -0.018 -2.962 0.528 -4.6" fill="#0d3a69"/><path d="m101.065 16.209 1.488 -0.047c2.299 -0.007 3.716 0.142 5.749 1.273 1.645 2.844 1.328 5.619 1.21 8.837l-0.037 1.947A308.791 308.791 0 0 1 109.341 32.967h-0.549l-0.549 -9.341 -3.846 1.099 -1.099 -3.297c-2.199 -0.051 -2.199 -0.051 -4.396 0 -0.879 0.879 -0.64 1.816 -0.662 3.033l-0.033 1.6 -0.028 1.74 -0.035 1.771a2773.077 2773.077 0 0 0 -0.101 5.626l-0.071 3.804Q97.882 43.677 97.802 48.352l-1.03 -0.309c-1.191 -0.371 -1.191 -0.371 -2.266 0.309v-1.099l-2.198 0.549q-0.041 -5.676 -0.06 -11.352 -0.009 -1.931 -0.022 -3.862a1209.89 1209.89 0 0 1 -0.025 -5.552l-0.018 -1.742v-1.632l-0.008 -1.431c0.195 -1.987 0.768 -3.551 2.058 -5.079 2.209 -1.079 4.407 -0.952 6.832 -0.945" fill="#d9dcde"/><path d="M125.275 16.484h6.593c1.779 11.42 1.779 11.42 2.082 15.936 0.088 1.21 0.088 1.21 0.665 2.745 0.037 0.949 0.047 1.9 0.035 2.851l-0.015 1.5L134.615 40.659l-1.305 -0.343L131.868 40.11l-1.099 1.099c-0.979 -3.635 -1.606 -7.271 -2.198 -10.989l-2.198 12.088 -2.747 0.549 -1.648 0.549c-0.082 -2.535 -0.084 -4.838 0.481 -7.314C123.095 33.236 123.359 30.38 123.626 27.473c0.345 -3.727 0.797 -7.337 1.648 -10.989m6.593 24.176 1.099 0.549 -1.099 0.549z" fill="#e8eaea"/><path d="M197.253 13.736c1.511 0.79 1.511 0.79 2.747 1.648l1.648 0.549q0.019 6.219 0.029 12.437 0.004 2.887 0.013 5.775c0.007 2.21 0.01 4.421 0.013 6.632l0.008 2.104v1.933l0.004 1.712C201.648 47.802 201.648 47.802 201.099 48.352c-0.823 0.054 -1.648 0.071 -2.473 0.069l-1.357 0.004C196.154 48.352 196.154 48.352 195.604 47.802a53.846 53.846 0 0 1 -0.063 -2.937v-1.9l0.009 -2.067 0.003 -2.104q0.004 -2.773 0.013 -5.547 0.008 -2.828 0.011 -5.657 0.009 -5.553 0.027 -11.106l-1.567 -0.255c-1.336 -0.227 -2.621 -0.492 -3.927 -0.843 2.495 -1.46 4.253 -1.964 7.143 -1.648" fill="#000103"/><path d="M247.44 16.368c1.681 0.931 2.589 1.807 3.659 3.412 0.126 1.824 0.126 1.824 0.103 3.915l-0.011 2.099C251.099 27.473 251.099 27.473 250.549 28.022c-0.823 0.054 -1.648 0.071 -2.473 0.069l-1.357 0.004C245.604 28.022 245.604 28.022 245.055 27.473a67.582 67.582 0 0 1 -0.309 -3.056l-0.14 -1.685L244.505 21.429q-1.923 -0.034 -3.846 0c-0.793 0.667 -0.793 0.667 -0.603 2.646q0.005 1.304 0.02 2.608l0.007 1.343q0.011 1.647 0.027 3.293l1.625 0.202 2.119 0.279 2.105 0.27C247.802 32.418 247.802 32.418 249.451 33.516v1.099l-1.163 -0.53c-1.707 -0.613 -3.143 -0.771 -4.949 -0.877 -1.786 -0.11 -3.174 -0.223 -4.876 -0.79l0.549 1.648h-3.297c-2.236 -2.549 -1.951 -5.588 -1.957 -8.791l-0.062 -1.64c-0.024 -3.857 -0.024 -3.857 1.068 -5.375 3.358 -2.893 8.541 -3.287 12.676 -1.893" fill="#124982"/><path d="M38.462 16.484h4.945v36.813h-4.945l-0.549 -15.934 -6.593 -0.549v-0.549l7.143 -0.549z" fill="#d8dadc"/><path d="M75.824 20.879q1.493 -0.022 2.988 -0.034l1.68 -0.02C81.868 20.879 81.868 20.879 82.418 21.429c0.051 0.843 0.064 1.689 0.063 2.534v1.633l-0.009 1.776 -0.003 1.809c-0.003 1.915 -0.01 3.83 -0.016 5.745l-0.008 3.884Q82.435 43.58 82.418 48.352c-1.308 0.654 -2.151 0.623 -3.605 0.618l-1.342 0.004C76.374 48.901 76.374 48.901 75.824 48.352a41.758 41.758 0 0 1 -0.063 -2.584v-1.667l0.009 -1.812 0.003 -1.846c0.003 -1.954 0.01 -3.908 0.016 -5.862l0.008 -3.963q0.009 -4.87 0.027 -9.739" fill="#030404"/><path d="m99.931 20.733 1.168 0.009 1.168 -0.009C103.297 20.879 103.297 20.879 104.396 21.978c0.132 1.113 0.132 1.113 0.125 2.496v1.566l-0.018 1.695 -0.004 1.732c-0.006 1.831 -0.02 3.662 -0.034 5.492q-0.009 1.858 -0.015 3.718Q104.431 43.24 104.396 47.802c-1.938 1.057 -3.269 1.292 -5.495 1.099 -1.351 -1.351 -1.237 -1.721 -1.241 -3.577l-0.01 -1.555 0.007 -1.684 -0.003 -1.725q-0.001 -1.807 0.005 -3.614c0.006 -1.848 0 -3.697 -0.007 -5.546q0 -1.752 0.004 -3.505l-0.007 -1.684 0.011 -1.555c0 -0.453 0.001 -0.907 0.002 -1.373 0.193 -1.532 0.724 -2.131 2.269 -2.35" fill="#080909"/><path d="m156.181 15.763 2.172 -0.063c2.402 0.269 3.53 0.91 5.383 2.432 1.389 2.084 1.222 3.741 1.168 6.147l-0.015 1.248c-0.013 1.015 -0.033 2.03 -0.054 3.045h-6.044V20.879l-4.945 0.549 -1.099 6.593h-0.549v-3.297h-1.648l0.549 -1.099c0.538 -1.668 0.58 -2.106 0 -3.846 -1.824 1.698 -2.359 3.011 -2.498 5.43a163.736 163.736 0 0 0 -0.035 3.235l-0.027 1.725c-0.027 1.813 -0.038 3.627 -0.05 5.441a2302.198 2302.198 0 0 1 -0.049 3.695Q148.379 43.829 148.352 48.352h-0.549a1159.89 1159.89 0 0 1 -0.181 -12.291q-0.024 -2.09 -0.068 -4.181a473.077 473.077 0 0 1 -0.073 -6.01c-0.016 -0.623 -0.034 -1.246 -0.052 -1.887 -0.002 -4.227 -0.002 -4.227 1.091 -5.753 2.52 -2.148 4.437 -2.407 7.662 -2.467" fill="#14497e"/><path d="M53.297 16.484h7.692c0.155 5.185 0.155 5.185 -1.099 7.692l-0.549 1.648h-2.747c-0.826 2.477 -0.942 5.063 -1.188 7.653 -0.342 3.218 -0.342 3.218 -1.559 4.435h-1.648c-1.158 0.175 -1.158 0.175 -2.198 0.549l-0.549 1.099c-0.263 -7.88 1.913 -15.495 3.846 -23.077" fill="#f5f5f5"/><path d="M134.615 14.286c1.72 0.901 2.433 2.119 3.297 3.846l1.099 -1.648c0.062 3.513 -0.153 6.874 -0.601 10.356l-0.185 1.494q-0.291 2.334 -0.588 4.668l-0.397 3.188Q136.757 40.074 136.264 43.956c-1.474 -1.474 -1.561 -2.963 -1.888 -4.945l-0.207 -1.209C133.024 30.813 131.868 23.571 131.868 16.484h-6.593l0.549 -1.648c2.56 -1.28 6.013 -0.845 8.791 -0.549" fill="#070808"/><path d="M195.604 16.484c0.048 1.957 0.077 3.914 0.103 5.873l0.042 1.677c0.029 2.958 0.009 4.831 -1.793 7.286 -0.384 1.42 -0.384 1.42 -0.584 2.851 -0.398 2.526 -0.398 2.526 -1.614 3.743a84.615 84.615 0 0 0 -1.099 3.846l-0.549 -2.198h-1.099c0.049 -0.49 0.049 -0.49 0.101 -0.989A917.582 917.582 0 0 0 190.11 28.022l-2.747 1.099c0.417 -3.057 0.417 -3.057 1.082 -4.258 0.782 -1.708 0.944 -3.362 1.185 -5.22l0.279 -2.103L190.11 15.934c2.186 -0.613 3.457 -0.469 5.495 0.549" fill="#175a90"/><path d="M15.934 37.912h0.549l0.043 1.985 0.095 2.582 0.024 1.308c0.05 2.574 0.05 2.574 1.513 4.588L19.231 48.901v-1.099l1.099 0.549 0.549 -0.549h1.099c-0.155 1.811 -0.53 2.721 -1.625 4.194 -2.307 1.795 -4.047 1.729 -6.892 1.679l-1.401 0.046c-3.266 -0.013 -3.266 -0.013 -4.737 -1.107C4.385 49.264 4.895 45.979 4.945 41.758h6.044v6.593h4.945z" fill="#adb1b4"/><path d="M112.088 16.484h6.044c0.699 4.636 1.212 9.214 1.236 13.908l0.015 1.203c-0.011 2.041 -0.09 2.927 -1.251 4.669h-1.099l-1.099 2.198c-0.871 -1.588 -1.337 -3.008 -1.668 -4.786l-0.282 -1.514 -0.282 -1.598 -0.294 -1.63C112.687 24.785 112.232 20.695 112.088 16.484" fill="#dadcdf"/><path d="m131.319 39.011 2.747 1.099 1.099 -1.099 0.549 4.945h1.099v-1.099h1.648v1.099l2.198 0.549 -1.099 8.791h-7.143c-1.486 -4.767 -2.514 -9.368 -1.099 -14.286m0.549 1.648 0.549 1.099 0.549 -1.099z" fill="#b7bbbf"/><path d="m95.604 46.703 0.549 1.099c3.429 0.759 6.607 0.643 9.959 -0.343C107.143 47.253 107.143 47.253 108.791 47.802l0.549 2.747c-1.875 1.923 -3.084 2.919 -5.805 3.093q-1.374 0.003 -2.745 -0.037l-1.395 0.019c-2.245 -0.027 -3.505 -0.155 -5.462 -1.334 -1.333 -1.474 -1.493 -2.532 -1.626 -4.488 1.065 -0.309 1.065 -0.309 2.198 -0.549l0.549 0.549z" fill="#b3b8bc"/><path d="M15.934 32.967c1.614 0.447 1.614 0.447 3.297 1.099l0.549 1.648 2.198 0.549v11.538h-1.099v1.099l-1.099 -0.549 -0.549 0.549a48.352 48.352 0 0 1 -2.747 -0.549l-0.101 -2.187 -0.139 -2.861 -0.066 -1.44C16.063 39.571 15.869 37.414 15.385 35.165c0.241 -1.27 0.241 -1.27 0.549 -2.198" fill="#c7cace"/><path d="M168.132 20.33h0.549v24.725h1.099l-0.034 1.477c0.03 1.612 0.216 3.004 0.584 4.567l2.747 0.549 1.099 -2.747h6.593l-0.549 -1.648 3.846 1.099 -1.648 5.495 1.099 0.549c-1.97 -0.137 -3.938 -0.29 -5.907 -0.446l-1.691 -0.117 -1.631 -0.135 -1.5 -0.113C171.154 53.238 170.404 52.841 169.231 51.648c-1.542 -3.058 -1.238 -6.408 -1.206 -9.748l0.004 -1.871c0.006 -1.965 0.02 -3.93 0.034 -5.895q0.009 -2.003 0.015 -4.005 0.019 -4.899 0.054 -9.799" fill="#082646"/><path d="m101.82 16.277 1.265 -0.062c2.125 -0.033 3.291 0.145 5.169 1.214 1.711 2.837 1.376 5.601 1.258 8.841l-0.038 1.948A308.791 308.791 0 0 1 109.341 32.967h-0.549l-0.549 -9.341 -3.846 1.099 -1.099 -3.297 -1.144 -0.202 -1.5 -0.279 -1.488 -0.27C97.802 20.33 97.802 20.33 96.154 19.231v-2.198c1.782 -0.891 3.71 -0.72 5.666 -0.755" fill="#f2f2f2"/><path d="m245.604 17.582 2.129 0.172 1.198 0.096C250 18.132 250 18.132 251.099 19.78c0.126 1.824 0.126 1.824 0.103 3.915l-0.011 2.099C251.099 27.473 251.099 27.473 250.549 28.022c-0.823 0.054 -1.648 0.071 -2.473 0.069l-1.357 0.004C245.604 28.022 245.604 28.022 245.055 27.473a67.582 67.582 0 0 1 -0.309 -3.056l-0.14 -1.685L244.505 21.429l-3.846 -0.549v-0.549l1.854 -0.446c2.112 -0.465 2.112 -0.465 3.091 -2.301" fill="#174b80"/><path d="M56.044 21.978h1.648v3.846h-1.099c-0.826 2.477 -0.942 5.063 -1.188 7.653 -0.342 3.218 -0.342 3.218 -1.559 4.435h-1.648c-1.158 0.175 -1.158 0.175 -2.198 0.549l-0.549 1.099c-0.132 -3.971 0.36 -7.639 1.099 -11.538l0.549 1.648h1.099l0.447 -1.27C53.277 26.967 53.867 26.353 54.945 25.275v-1.648h1.099z" fill="#d6d9da"/><path d="M201.648 15.934q1.357 -0.022 2.713 -0.034l1.526 -0.02C207.143 15.934 207.143 15.934 207.692 16.484c0.055 1.307 0.077 2.597 0.073 3.904l0.002 1.194q0 1.255 -0.003 2.509 -0.003 1.908 0.004 3.816 0 1.22 -0.002 2.44l0.003 1.145c-0.011 2.197 -0.204 4.266 -0.626 6.421h-0.549l-0.549 -18.681 -2.198 -1.099c-0.863 1.726 -0.605 3.568 -0.584 5.46l0.007 1.213q0.011 1.609 0.027 3.216c0 1.412 -0.048 2.803 -0.12 4.213l-0.075 1.486 -0.08 1.547 -0.08 1.566Q202.846 38.746 202.747 40.659h-0.549c-0.67 -2.61 -0.619 -5.149 -0.603 -7.823l0.003 -1.467c0.003 -1.539 0.01 -3.079 0.016 -4.618q0.005 -1.57 0.008 -3.139 0.009 -3.84 0.027 -7.679" fill="#1a4169"/><path d="M56.593 23.626c0.942 1.687 1.362 3.199 1.687 5.099l0.29 1.676 0.29 1.741c0.1 0.574 0.2 1.148 0.302 1.741C59.555 36.189 59.89 38.314 59.89 40.659H54.396q0.192 -2.584 0.395 -5.166 0.143 -1.83 0.275 -3.662c0.224 -2.881 0.614 -5.462 1.528 -8.205" fill="#0e0f0f"/><path d="M18.956 16.999C20.33 17.582 20.33 17.582 21.326 18.853 22.253 21.734 22.109 24.472 21.978 27.473H16.484a313.736 313.736 0 0 1 -0.377 -4.292l-0.121 -1.229c-0.231 -2.997 -0.231 -2.997 0.677 -4.373C17.582 17.033 17.582 17.033 18.956 16.998" fill="#f0f1f1"/><path d="M112.088 16.484h6.044c0.075 1.318 0.129 2.631 0.172 3.949l0.069 1.121c0.055 2.249 -0.154 3.068 -1.626 4.813L115.385 27.473c-1.056 -0.275 -1.056 -0.275 -2.198 -1.099a30.22 30.22 0 0 1 -0.687 -4.396l-0.129 -1.227c-0.146 -1.423 -0.284 -2.835 -0.284 -4.267" fill="#edeeee"/><path d="M119.231 31.868h0.549c0.934 4.625 1.236 9.022 1.099 13.736l1.099 0.549h-1.648l-0.549 -1.099h-1.099l-1.099 3.297h-1.099c-1.546 -8.696 -1.546 -8.696 0.549 -12.088l0.859 -0.79c1.038 -1.129 1.137 -2.112 1.339 -3.606" fill="#c2c6c9"/><path d="m156.181 15.763 2.172 -0.063c2.398 0.269 3.549 0.89 5.383 2.432l0.549 1.648h-1.099l-0.74 -0.814c-1.177 -1.081 -1.776 -1.027 -3.353 -0.995l-1.412 0.016 -1.467 0.041 -1.486 0.023A302.198 302.198 0 0 0 151.099 18.132l-0.171 0.962C150.549 20.33 150.549 20.33 149.716 21.342c-0.96 1.396 -1.03 2.128 -1.053 3.805l-0.033 1.566 -0.011 1.677 -0.03 1.727c-0.03 1.819 -0.048 3.638 -0.067 5.458q-0.027 1.851 -0.057 3.702Q148.397 43.815 148.352 48.352h-0.549a1159.89 1159.89 0 0 1 -0.181 -12.291q-0.024 -2.09 -0.068 -4.181a473.077 473.077 0 0 1 -0.073 -6.01c-0.016 -0.623 -0.034 -1.246 -0.052 -1.887 -0.002 -4.227 -0.002 -4.227 1.091 -5.753 2.52 -2.148 4.437 -2.407 7.662 -2.467" fill="#225280"/><path d="M125.618 31.799 126.923 31.868c0.609 3.773 0.385 6.74 -0.549 10.44l-1.27 0.241c-1.522 0.288 -1.522 0.288 -3.125 0.858 -0.115 -3.579 0.043 -6.991 1.099 -10.44 1.099 -1.099 1.099 -1.099 2.541 -1.168" fill="#d8dcde"/><path d="M65.934 44.505h0.549l1.099 8.791h-5.495c-0.798 -2.493 -1.228 -4.495 -1.099 -7.143l0.962 0.309c1.379 0.268 2.138 0.227 3.434 -0.309z" fill="#b1b6b9"/><path d="m194.505 15.934 1.099 1.099 -2.198 0.549 -0.062 0.947C193.093 21.467 192.639 23.777 191.209 26.374c-1.099 0.687 -1.099 0.687 -2.198 1.099 -0.94 0.847 -0.94 0.847 -1.648 1.648 0.417 -3.057 0.417 -3.057 1.082 -4.258 0.782 -1.708 0.944 -3.362 1.185 -5.22l0.279 -2.103L190.11 15.934c1.699 -0.473 2.712 -0.618 4.396 0" fill="#3c8ab8"/><path d="M273.626 16.484h5.495v14.835h-0.549c-0.537 -2.996 -0.535 -5.728 -0.309 -8.757l0.087 -1.298q0.107 -1.566 0.222 -3.132l-3.846 -0.549a321.429 321.429 0 0 0 -0.034 2.404l-0.02 1.352c-0.026 1.216 -0.026 1.216 0.603 2.288 0.009 1.077 -0.019 2.155 -0.066 3.232l-0.081 1.942 -0.093 2.037 -0.087 2.049A1634.615 1634.615 0 0 1 274.725 37.912h-1.099z" fill="#215284"/><path d="M132.967 30.769h0.549c1.002 3.381 1.229 6.371 1.099 9.89l-1.305 -0.343L131.868 40.11l-1.099 1.099c-1.402 -5.084 -1.402 -5.084 -1.099 -7.692 0.721 -1.03 0.721 -1.03 1.648 -1.648h1.648zm-1.099 9.89 1.099 0.549 -1.099 0.549z" fill="#d0d3d7"/><path d="M139.011 16.484h6.044l-1.099 7.143 -0.549 -1.099 -1.888 0.549C139.56 23.626 139.56 23.626 139.011 23.626z" fill="#e8ebec"/><path d="M211.538 15.934h6.044l-0.549 2.198h-3.297c-0.445 2.775 -0.657 5.498 -0.723 8.308l-0.035 1.24q-0.053 1.94 -0.101 3.879l-0.072 2.647Q212.718 37.433 212.637 40.659h-0.549c-0.526 -5.475 -0.616 -10.888 -0.584 -16.38q0.004 -1.222 0.007 -2.444 0.009 -2.951 0.027 -5.901" fill="#274d74"/><path d="M11.538 32.418c6.395 -0.421 6.395 -0.421 8.229 0.612C20.502 33.791 20.502 33.791 21.429 35.165l-0.549 1.648 -1.648 -1.099v-1.648l-2.747 -0.549 -0.549 3.297H8.791l1.648 -0.549v-1.099h1.099z" fill="#d2d6d8"/><path d="M180.769 41.209c0.191 2.68 -0.32 4.269 -1.648 6.593l1.099 0.549h-4.396c-0.157 -1.857 -0.242 -3.643 0 -5.495 1.734 -1.637 2.542 -1.648 4.945 -1.648" fill="#0a1a2e"/><path d="M202.198 16.484h5.495q0.02 3.783 0.03 7.566 0.004 1.286 0.011 2.57 0.009 1.854 0.013 3.707l0.008 1.151c0 2.203 -0.187 4.273 -0.612 6.435h-0.549l-0.033 -1.698c-0.042 -2.074 -0.091 -4.148 -0.141 -6.224q-0.032 -1.347 -0.058 -2.696a568.681 568.681 0 0 0 -0.09 -3.87l-0.019 -1.221c0.001 -2.286 0.001 -2.286 -1.307 -4.071 -1.412 -0.356 -1.412 -0.356 -2.747 -0.549z" fill="#214970"/><path d="M217.582 16.484h0.549l0.268 0.963c1.92 7.079 1.92 7.079 4.299 14.009 0.977 2.533 1.299 4.85 1.477 7.555 -2.095 -2.095 -2.43 -4.805 -3.018 -7.611 -0.324 -1.373 -0.842 -2.625 -1.378 -3.927v-1.648h-1.648l0.069 -1.717c-0.067 -2.081 -0.313 -3.536 -1.168 -5.426l-1.648 -0.549 1.648 -0.549z" fill="#22466c"/><path d="m234.066 31.319 3.297 2.747 1.099 -0.549v-1.099l3.846 0.549 -1.099 0.549v1.099l1.614 0.481C244.505 35.714 244.505 35.714 245.055 36.813c-7.043 0.429 -7.043 0.429 -9.512 -1.202 -0.899 -1.499 -1.329 -2.56 -1.477 -4.293" fill="#0f4071"/><path d="M224.725 15.934h5.495v1.648l-3.846 0.549v1.648l-0.271 1.28c-0.298 1.576 -0.341 3.017 -0.332 4.621l0.005 1.776 0.014 1.836 0.007 1.868q0.01 2.276 0.027 4.553h-0.549q-0.255 -3.827 -0.5 -7.656 -0.084 -1.302 -0.17 -2.604c-0.084 -1.248 -0.163 -2.496 -0.242 -3.744 -0.027 -0.388 -0.054 -0.776 -0.081 -1.176 -0.105 -1.729 -0.11 -2.938 0.444 -4.6" fill="#23507c"/><path d="M254.945 15.934h15.385v1.648h-15.385z" fill="#3f6993"/><path d="M270.33 48.352c0.674 2.021 0.463 2.629 0 4.945h-15.385l0.549 -1.099c3.538 -0.059 6.937 0.021 10.44 0.549l1.099 -3.297h3.297z" fill="#0a2648"/><path d="M158.791 40.659h6.044v1.648h-4.945v6.593c-1.321 0.661 -2.17 0.604 -3.64 0.584l-1.361 -0.015L153.846 49.451l-0.549 -1.099h5.495l-0.14 -1.264 -0.169 -1.655 -0.174 -1.642C158.242 42.308 158.242 42.308 158.791 40.659" fill="#2b4968"/><path d="m185.165 25.275 0.721 1.03C186.812 27.593 186.812 27.593 188.462 28.571c-1.008 2.604 -2.154 5.145 -3.297 7.692 -1.386 -1.444 -1.645 -2.151 -1.82 -4.19C183.516 30.22 183.516 30.22 184.615 29.121c0.22 -1.276 0.407 -2.559 0.549 -3.846" fill="#19639c"/><path d="M187.912 41.758h0.549c0.375 3.602 -0.741 5.331 -2.747 8.242a111.538 111.538 0 0 0 -1.27 2.198L183.516 53.846h-1.099c0.382 -2.258 1.054 -4.313 1.854 -6.456l0.699 -1.914L185.714 43.956l1.648 -0.549z" fill="#1d699c"/><path d="m177.438 15.797 2.007 -0.043c2.013 0.193 3.023 0.616 4.621 1.829l0.549 1.099h-3.846v-0.549a314.286 314.286 0 0 0 -4.224 -0.103l-1.201 -0.042c-2.529 -0.035 -4.082 0.267 -6.114 1.793 0.633 -1.356 1.125 -2.224 2.198 -3.297 1.956 -0.704 3.949 -0.66 6.01 -0.687" fill="#4d7598"/><path d="M259.341 20.879h1.099v10.989h8.242v1.099l-8.242 0.549v-1.099l-1.648 -0.549 -0.549 -1.648 0.549 -0.549a124.176 124.176 0 0 0 0.309 -4.43l0.071 -1.264q0.087 -1.548 0.169 -3.098" fill="#28517d"/><path d="m180.22 47.253 3.846 1.099 -1.648 5.495 1.099 0.549h-1.648v-1.099h-3.297l-0.549 -1.099h1.099l0.549 -3.297h1.099z" fill="#052e54"/><path d="M254.945 17.582h2.747c-0.206 1.34 -0.206 1.34 -0.549 2.747l-1.099 0.549 0.019 1.479c0.047 6.662 -0.24 13.297 -0.569 19.95h-0.549z" fill="#265382"/><path d="m156.25 15.728 2.142 -0.047c2.363 0.292 3.531 0.934 5.345 2.451l0.549 1.648h-1.099l-0.745 -0.812c-1.152 -1.067 -1.722 -1.042 -3.271 -1.036l-1.381 0.001 -1.437 0.026 -1.431 -0.005c-2.348 0.02 -3.945 0.093 -6.021 1.276 0.5 -1.25 0.864 -2.036 1.987 -2.808 1.815 -0.678 3.427 -0.676 5.362 -0.695" fill="#476e95"/><path d="M174.725 17.582c-0.652 1.099 -0.652 1.099 -1.648 2.198 -1.476 0.137 -1.476 0.137 -2.747 0l-0.309 2.129 -0.174 1.198c-0.159 1.113 -0.159 1.113 0.483 2.168a80.22 80.22 0 0 1 -0.515 3.915l-0.324 2.134L169.231 32.967h-0.549V19.231c3.434 -1.717 3.434 -1.717 6.044 -1.648" fill="#1c4a78"/><path d="M25.824 16.484h5.495v4.396l-1.648 -1.099h1.099l-0.549 -2.198 -0.721 1.065C28.571 19.78 28.571 19.78 26.923 20.33v5.495h-1.099z" fill="#f3f4f4"/><path d="M229.67 42.308h0.549v10.989h-6.044l-1.099 -4.396h1.648l0.172 1.03c0.309 1.368 0.309 1.368 2.026 2.266 1.454 -0.171 1.454 -0.171 2.747 -0.549l-0.14 -1.764 -0.169 -2.288 -0.093 -1.163c-0.209 -2.902 -0.209 -2.902 0.402 -4.125" fill="#0e2b4b"/><path d="M221.978 36.813c1.982 1.321 2.118 2.169 2.747 4.396h-1.648l-0.069 2.095 -0.038 1.178c0.034 1.295 0.034 1.295 1.206 2.771 -0.206 1.202 -0.206 1.202 -0.549 2.198 -1.587 -2.265 -2.017 -4.21 -2.369 -6.937l-0.165 -1.112c-0.271 -2.101 -0.33 -2.766 0.886 -4.589" fill="#083460"/><path d="M147.802 48.901c1.648 0.549 1.648 0.549 2.198 1.648l1.099 -0.549 0.549 2.198 1.648 -0.549v1.099q1.838 -0.256 3.675 -0.515l2.066 -0.29c1.58 -0.238 3.136 -0.512 4.698 -0.843 -0.94 1.312 -1.698 2.101 -3.313 2.415 -1.363 0.079 -2.705 0.082 -4.07 0.058 -0.465 0.008 -0.93 0.016 -1.409 0.026 -2.288 -0.014 -3.538 -0.11 -5.519 -1.34 -1.081 -1.167 -1.455 -1.793 -1.623 -3.357" fill="#0f2947"/><path d="m242.582 15.763 1.837 -0.028c1.918 0.22 2.943 0.702 4.481 1.848l0.549 1.099 -1.648 -0.275c-3.818 -0.491 -7.697 -0.316 -11.538 -0.275v-1.099c2.169 -1.016 3.93 -1.262 6.319 -1.27" fill="#436f9a"/><path d="m108.242 47.802 1.099 1.648c-0.781 1.889 -1.489 2.864 -3.297 3.846 -1.79 0.203 -3.559 0.155 -5.357 0.103l-1.479 -0.023A295.604 295.604 0 0 1 95.604 53.297v-0.549h9.341c1.11 -1.979 1.11 -1.979 1.34 -3.399 0.102 -0.329 0.203 -0.658 0.309 -0.996z" fill="#a8adb0"/><path d="M249.451 19.231h1.099v7.692l-3.846 -0.549 1.099 -1.099 -0.549 -1.648h-1.099v-1.099l2.747 -0.549z" fill="#154d87"/><path d="M212.088 16.484h5.495l-0.549 1.648h-3.297c-0.481 3.01 -0.709 5.988 -0.858 9.032l-0.072 1.376Q212.72 30.205 212.637 31.868h-0.549z" fill="#2d6194"/><path d="M266.484 17.582h3.846v3.297h-9.341v-0.549h4.396z" fill="#154d87"/><path d="M25.824 42.308h0.549l1.099 8.791 2.747 1.099 1.099 -0.549v1.648H25.824z" fill="#c4c7cc"/><path d="M191.758 18.132h0.549c0.175 2.626 -0.242 4.147 -1.545 6.422l-0.87 1.552c-0.764 1.184 -1.488 2.08 -2.53 3.015 0.284 -2.08 0.718 -3.634 1.648 -5.495 0.21 -1.094 0.399 -2.193 0.549 -3.297h1.099z" fill="#43c0ea"/><path d="M239.011 21.429h0.549l0.549 9.89 3.743 0.481c3.743 0.481 3.743 0.481 5.597 1.717v1.099l-1.161 -0.532c-2.231 -0.797 -4.377 -0.811 -6.726 -0.927C240.11 32.967 240.11 32.967 239.011 31.868c-0.125 -1.083 -0.125 -1.083 -0.107 -2.391l0.011 -1.416 0.027 -1.481 0.015 -1.494q0.02 -1.829 0.054 -3.657" fill="#234c76"/><path d="M217.033 29.121c1.168 1.752 1.375 2.893 1.648 4.945h-1.099v19.231h-0.549z" fill="#030e1b"/><path d="m131.319 39.011 2.747 1.099 1.099 -1.099v6.044c-3.687 -1.341 -3.687 -1.341 -4.396 -2.713 0 -1.205 0.181 -2.187 0.549 -3.331m0.549 1.648 0.549 1.099 0.549 -1.099z" fill="#c1c6c9"/><path d="m188.462 37.363 0.549 2.198 2.198 0.549c0.045 2.286 -0.01 4.366 -0.549 6.593 -1.417 -1.188 -2.125 -1.947 -2.644 -3.743 -0.115 -1.945 0.102 -3.685 0.446 -5.598" fill="#0b4068"/><path d="M193.956 28.571c1.191 2.978 -0.497 6.013 -1.648 8.791 -0.556 1.463 -1.102 2.929 -1.648 4.396 -0.625 -0.882 -0.625 -0.882 -1.099 -2.198 0.436 -1.642 0.436 -1.642 1.202 -3.468l0.786 -1.907L192.308 32.418l0.554 -1.322A162.637 162.637 0 0 1 193.956 28.571" fill="#125388"/><path d="M191.758 30.22h0.549c0.225 2.935 -0.365 5.602 -1.648 8.242l-1.648 1.099c0.428 -5.801 0.428 -5.801 1.648 -8.242h1.099z" fill="#1d6ea8"/><path d="M132.967 30.769h0.549c0.172 1.477 0.172 1.477 0 3.297 -1.305 1.58 -1.305 1.58 -2.747 2.747h-1.099c-0.201 -3.01 -0.201 -3.01 0.721 -4.327C131.319 31.868 131.319 31.868 132.967 31.868z" fill="#d6dadc"/><path d="M234.066 41.758h5.495v1.099h-4.396v6.593h-1.099z" fill="#294a6d"/><path d="M141.758 18.132c1.099 0.755 1.099 0.755 2.198 1.648v1.099h-1.648l-0.824 1.374L140.659 23.626h-1.648c0.193 -3.001 0.193 -3.001 0.549 -4.396 1.134 -0.824 1.134 -0.824 2.198 -1.099" fill="#f6f6f4"/><path d="M202.198 16.484h5.495l-0.549 10.44h-0.549l-0.081 -1.644 -0.125 -2.134 -0.115 -2.125c-0.048 -1.835 -0.048 -1.835 -1.327 -2.889 -1.412 -0.356 -1.412 -0.356 -2.747 -0.549z" fill="#2e6191"/><path d="M52.198 15.934h8.791v0.549H53.297l-1.099 7.143c-1.099 -1.099 -1.099 -1.099 -1.105 -2.369L51.271 19.78l0.165 -1.476C51.648 17.033 51.648 17.033 52.198 15.934" fill="#454547"/><path d="M185.714 20.33h0.549l0.549 3.297c1.801 -0.413 1.801 -0.413 2.747 -2.198 -0.334 2.268 -1.12 4.029 -2.198 6.044h-1.648z" fill="#124d6e"/><path d="m81.868 51.099 3.846 1.099c-1.099 1.099 -1.099 1.099 -2.334 1.224 -0.5 -0.005 -1.001 -0.011 -1.516 -0.018l-1.643 -0.011 -1.719 -0.027 -1.732 -0.015A624.725 624.725 0 0 1 72.527 53.297l-0.549 -1.099q1.699 -0.022 3.4 -0.034l1.912 -0.02c1.607 0.047 3.019 0.231 4.578 0.603z" fill="#a7abaf"/><path d="m202.198 17.582 1.648 0.549 -0.549 1.099a112.637 112.637 0 0 0 -0.034 4.362l0.007 1.213q0.011 1.609 0.027 3.216c0 1.71 -0.251 3.265 -0.549 4.945h-0.549z" fill="#174c80"/><path d="m121.978 38.462 1.099 1.648 2.747 -1.099 0.549 3.297 -1.27 0.241c-1.522 0.288 -1.522 0.288 -3.125 0.858z" fill="#c7cbcd"/><path d="M51.099 50h1.099v3.297H46.703v-2.747h1.648l0.549 1.099 1.648 -0.549z" fill="#b0b4b7"/><path d="M250.549 19.78h0.549q0.021 1.905 0.035 3.812l0.019 2.144C251.099 27.473 251.099 27.473 250.549 28.022c-0.835 0.04 -1.671 0.046 -2.507 0.035l-1.376 -0.015L245.604 28.022l1.099 -2.198 3.297 0.549z" fill="#103356"/><path d="m235.714 17.582 1.099 1.099 -1.099 1.648c-0.25 1.219 -0.25 1.219 -0.348 2.565l-0.14 1.486 -0.131 1.547 -0.144 1.566q-0.175 1.912 -0.337 3.825h-0.549c-0.048 -1.98 -0.077 -3.96 -0.103 -5.941l-0.042 -1.705 -0.016 -1.637 -0.026 -1.508c0.221 -1.53 0.647 -1.998 1.836 -2.945" fill="#204a74"/><path d="M180.769 41.209c0.191 2.68 -0.32 4.269 -1.648 6.593l1.099 0.549h-1.648V42.857l-2.198 -0.549c1.697 -0.97 2.326 -1.099 4.396 -1.099" fill="#041a2c"/><path d="M259.89 36.813h0.549v11.538h3.846v0.549l-2.129 0.241c-1.309 0.147 -2.181 0.266 -3.365 0.858l-0.549 -1.648 1.099 -1.099c0.203 -1.115 0.203 -1.115 0.227 -2.391l0.064 -1.416 0.052 -1.481 0.064 -1.494q0.078 -1.828 0.142 -3.657" fill="#183c60"/><path d="M217.582 16.484h0.549q0.415 1.871 0.824 3.743l0.464 2.105C219.78 24.176 219.78 24.176 219.78 25.824h-1.648l0.069 -1.717c-0.067 -2.081 -0.313 -3.536 -1.168 -5.426l-1.648 -0.549 1.648 -0.549z" fill="#1f4e81"/><path d="M65.934 44.505h0.549l0.549 4.945 -1.099 -2.198c-1.916 0.423 -1.916 0.423 -3.846 1.099l-0.549 1.648c-0.549 -0.549 -0.549 -0.549 -0.584 -2.232L60.989 46.154l0.962 0.309c1.379 0.268 2.138 0.227 3.434 -0.309z" fill="#a2a6a9"/><path d="m122.527 36.264 1.648 1.099h2.198l0.549 1.648 -1.099 1.648 -0.549 -1.099 -2.747 1.099z" fill="#d1d5d8"/><path d="M60.989 18.681h0.549c0.663 2.567 0.601 5.063 0.549 7.692h-1.648c-0.618 -1.545 -0.618 -1.545 -1.099 -3.297l1.099 -1.648a41.209 41.209 0 0 0 0.549 -2.747" fill="#dee0df"/><path d="m172.495 16.392 1.286 0.066 1.402 0.071 1.466 0.092 1.466 0.066c3.613 0.205 3.613 0.205 4.853 1.445l-2.198 0.549v-0.549a314.286 314.286 0 0 0 -4.224 -0.103l-1.201 -0.042c-2.529 -0.035 -4.082 0.267 -6.114 1.793 1.511 -3.237 1.511 -3.237 3.264 -3.388" fill="#376794"/><path d="M201.648 37.912h0.549c0.214 1.522 0.419 3.044 0.618 4.568l0.187 1.308 0.161 1.261 0.157 1.159C203.297 47.253 203.297 47.253 202.198 48.901c-1.099 -1.099 -1.099 -1.099 -1.173 -2.132l0.087 -1.238 0.086 -1.341 0.107 -1.402 0.095 -1.414c0.078 -1.154 0.163 -2.308 0.249 -3.462" fill="#15385c"/><path d="M72.527 16.484h12.637l0.549 1.648 -1.099 1.099 -1.099 -1.099h-1.099v-1.099h-9.89z" fill="#e7e9ea"/><path d="M13.736 32.418c4.415 -0.433 4.415 -0.433 6.628 1.374L21.429 35.165l-0.549 1.648 -1.648 -1.099v-1.648l-1.202 -0.24L13.736 32.967z" fill="#d8dcde"/><path d="M192.857 17.582h0.549c-0.213 3.234 -0.595 5.941 -2.198 8.791 -1.202 0.515 -1.202 0.515 -2.198 0.549 0.54 -1.452 1.093 -2.74 1.923 -4.052 0.976 -1.707 1.439 -3.39 1.923 -5.288" fill="#1c7cb5"/><path d="M130.769 41.758c1.411 1.437 1.646 2.168 1.809 4.215q-0.016 1.121 -0.058 2.241l-0.022 1.161A217.033 217.033 0 0 1 132.418 52.198h-0.549c-0.956 -3.533 -1.236 -6.786 -1.099 -10.44" fill="#aeb3b7"/><path d="M189.011 28.022h1.099v6.044h-0.549l-0.549 -3.297 -2.747 2.747c0.629 -2.128 1.227 -3.848 2.747 -5.495" fill="#082131"/><path d="M174.725 17.582c-0.652 1.099 -0.652 1.099 -1.648 2.198 -1.476 0.137 -1.476 0.137 -2.747 0l-0.549 3.297h-0.549c-0.171 -1.511 -0.171 -1.511 0 -3.297 1.733 -1.882 2.946 -2.489 5.495 -2.198" fill="#154c80"/><path d="m132.967 23.626 0.549 6.593 -1.099 -0.549 -0.549 -2.747 -1.099 -0.549v-1.648c1.648 -1.099 1.648 -1.099 2.198 -1.099" fill="#ced2d3"/><path d="M21.429 20.879h0.549v6.593h-4.396l2.747 -2.198 1.099 0.549z" fill="#cfd0d2"/><path d="M179.121 42.308c0.201 2.482 0.201 2.482 -0.755 3.743C177.473 46.703 177.473 46.703 176.374 46.703v-3.846c2.129 -0.549 2.129 -0.549 2.747 -0.549" fill="#0c223c"/><path d="M224.725 29.67h0.549v10.44c-1.409 -1.409 -1.396 -2.46 -1.648 -4.396h1.099z" fill="#0e2a46"/><path d="M234.066 31.319c1.374 1.195 1.888 2.049 2.198 3.846l3.297 0.549v1.099c-1.956 -0.168 -2.747 -0.549 -4.292 -1.82C234.066 33.516 234.066 33.516 234.066 31.319" fill="#193b5c"/><path d="M174.176 41.209c1.854 2.473 1.854 2.473 1.752 4.808l-0.046 1.331L175.824 48.352l-1.648 -0.549z" fill="#00060e"/><path d="m186.813 27.473 1.648 1.099c-0.797 2.083 -1.732 4.059 -2.747 6.044h-0.549c-0.069 -1.58 -0.069 -1.58 0 -3.297l1.099 -1.099c0.356 -1.412 0.356 -1.412 0.549 -2.747" fill="#2780b6"/><path d="m51.648 25.275 2.198 0.549c-1.03 2.61 -1.03 2.61 -1.648 3.846h-1.099z" fill="#edeeef"/><path d="m187.363 42.857 0.549 2.198h-1.099l-1.099 3.297h-0.549c-0.137 -1.511 -0.137 -1.511 0 -3.297 1.099 -1.305 1.099 -1.305 2.198 -2.198" fill="#3f97cb"/><path d="M221.429 42.308h1.099l0.206 1.546c0.242 1.827 0.242 1.827 1.442 3.399 -0.206 1.202 -0.206 1.202 -0.549 2.198 -1.713 -2.383 -1.956 -4.288 -2.198 -7.143" fill="#123151"/><path d="m61.538 27.473 1.648 0.549v4.396l-1.648 -0.549z" fill="#dddee0"/><path d="m73.626 47.253 2.747 1.099a155.495 155.495 0 0 1 -2.747 2.747h-0.549c-0.024 -1.099 -0.022 -2.198 0 -3.297z" fill="#b3b8bc"/><path d="M164.286 42.308h0.549q0.043 1.888 0.069 3.777l0.038 2.125C164.835 50 164.835 50 163.736 51.099c-0.674 -2.021 -0.386 -3.232 -0.034 -5.323l0.324 -1.964z" fill="#0f2d4a"/><path d="m63.187 43.407 2.198 0.549 -0.549 2.747 -2.198 0.549z" fill="#bcbfc4"/><path d="m189.56 34.066 1.648 1.099c-0.171 1.58 -0.171 1.58 -0.549 3.297l-1.648 1.099z" fill="#196194"/><path d="m192.308 34.615 1.099 0.549 -0.755 1.134C191.666 38.079 191.16 39.791 190.659 41.758c-0.631 -0.936 -0.631 -0.936 -1.099 -2.198 0.493 -1.297 0.493 -1.297 1.305 -2.61l0.802 -1.331c0.212 -0.331 0.423 -0.663 0.64 -1.004" fill="#0e4a7c"/><path d="M191.758 18.132h0.549v3.297h-1.648l-1.099 1.648v-2.747h1.099z" fill="#31a8db"/><path d="M82.967 42.308h0.549q0.159 1.476 0.309 2.953l0.174 1.661C84.066 48.352 84.066 48.352 83.516 49.451l-2.198 -0.549 1.099 -1.099c0.254 -1.337 0.254 -1.337 0.343 -2.816l0.125 -1.515z" fill="#bec3c6"/><path d="M241.209 32.418c1.064 -0.03 2.129 -0.051 3.194 -0.069l1.796 -0.038C247.802 32.418 247.802 32.418 249.451 33.516v1.099l-1.03 -0.515c-2.37 -0.806 -4.726 -0.951 -7.212 -1.134z" fill="#527ba4"/><path d="m48.901 37.363 1.099 1.099c1.43 -0.176 1.43 -0.176 2.747 -0.549v1.099l-3.297 1.648c-0.549 -0.549 -0.549 -0.549 -0.584 -1.957z" fill="#bbbfc2"/><path d="M51.099 22.527h0.549c0.069 4.258 0.069 4.258 -0.549 5.495h-1.099q0.116 -1.22 0.241 -2.438c0.044 -0.453 0.089 -0.905 0.135 -1.372C50.549 23.077 50.549 23.077 51.099 22.527" fill="#101010"/><path d="M255.495 17.582h2.198l-0.549 2.747 -1.648 0.549z" fill="#134e8a"/><path d="m195.055 17.033 0.549 1.648 -2.747 2.747 0.549 -3.846z" fill="#1b6097"/><path d="m26.923 51.099 1.58 0.584C30.149 52.39 30.149 52.39 31.319 51.648v1.648h-4.396z" fill="#b3b6ba"/><path d="M259.341 47.253c1.189 0.133 1.189 0.133 2.541 0.481l1.361 0.339L264.286 48.352v0.549l-2.129 0.241c-1.309 0.147 -2.181 0.266 -3.365 0.858l-0.549 -1.648z" fill="#153152"/><path d="M180.769 33.516h0.549l0.062 1.043 0.11 1.361 0.096 1.352c0.188 1.398 0.188 1.398 1.93 2.288 -1.064 0.309 -1.064 0.309 -2.198 0.549 -0.549 -0.549 -0.549 -0.549 -0.603 -1.925l0.02 -1.68 0.015 -1.685z" fill="#12426d"/><path d="M62.088 48.901h2.198l-1.099 2.198h-1.099l-0.549 1.648z" fill="#abafb2"/><path d="m124.725 29.121 2.198 2.198 -2.198 1.099c-0.618 -2.06 -0.618 -2.06 0 -3.297" fill="#e1e4e4"/><path d="M56.044 21.978h1.648v3.846h-1.648z" fill="#b9b9b8"/><path d="m235.714 17.582 1.099 1.099 -1.099 1.648c-0.214 1.093 -0.402 2.192 -0.549 3.297h-0.549a160.989 160.989 0 0 1 -0.069 -2.404l-0.038 -1.352C234.615 18.681 234.615 18.681 235.714 17.582" fill="#2d5f8e"/></svg>